<mxfile host="app.diagrams.net" modified="2021-04-13T08:13:21.131Z" agent="5.0 (Windows NT 10.0; Win64; x64) AppleWebKit/537.36 (KHTML, like Gecko) Chrome/89.0.4389.114 Safari/537.36" etag="LY6u0DXsQ8F7cAk0MatV" version="14.5.10" type="github">
  <diagram id="C5RBs43oDa-KdzZeNtuy" name="Page-1">
    <mxGraphModel dx="1289" dy="762" grid="1" gridSize="10" guides="1" tooltips="1" connect="1" arrows="1" fold="1" page="1" pageScale="1" pageWidth="827" pageHeight="1169" math="0" shadow="0">
      <root>
        <mxCell id="WIyWlLk6GJQsqaUBKTNV-0" />
        <mxCell id="WIyWlLk6GJQsqaUBKTNV-1" parent="WIyWlLk6GJQsqaUBKTNV-0" />
        <mxCell id="tFHmv6YJ7B7vkWNUSLFC-40" value="WEB&lt;br&gt;SERVER" style="rounded=0;whiteSpace=wrap;html=1;fillColor=none;" vertex="1" parent="WIyWlLk6GJQsqaUBKTNV-1">
          <mxGeometry x="730" y="760" width="120" height="60" as="geometry" />
        </mxCell>
        <mxCell id="tFHmv6YJ7B7vkWNUSLFC-0" value="NOTIFICATION" style="rounded=0;whiteSpace=wrap;html=1;" vertex="1" parent="WIyWlLk6GJQsqaUBKTNV-1">
          <mxGeometry x="109" y="70" width="150" height="40" as="geometry" />
        </mxCell>
        <mxCell id="tFHmv6YJ7B7vkWNUSLFC-1" value="SERVICE" style="rounded=0;whiteSpace=wrap;html=1;" vertex="1" parent="WIyWlLk6GJQsqaUBKTNV-1">
          <mxGeometry x="109" y="160" width="150" height="50" as="geometry" />
        </mxCell>
        <mxCell id="tFHmv6YJ7B7vkWNUSLFC-2" value="" style="shape=flexArrow;endArrow=classic;html=1;" edge="1" parent="WIyWlLk6GJQsqaUBKTNV-1">
          <mxGeometry width="50" height="50" relative="1" as="geometry">
            <mxPoint x="183.5" y="150" as="sourcePoint" />
            <mxPoint x="183.5" y="120" as="targetPoint" />
          </mxGeometry>
        </mxCell>
        <mxCell id="tFHmv6YJ7B7vkWNUSLFC-3" value="LOGIN&amp;nbsp;&lt;br&gt;ACTIVITY" style="whiteSpace=wrap;html=1;aspect=fixed;" vertex="1" parent="WIyWlLk6GJQsqaUBKTNV-1">
          <mxGeometry x="279" y="70" width="140" height="140" as="geometry" />
        </mxCell>
        <mxCell id="tFHmv6YJ7B7vkWNUSLFC-4" value="RECIPE&lt;br&gt;ACTIVITY" style="whiteSpace=wrap;html=1;aspect=fixed;" vertex="1" parent="WIyWlLk6GJQsqaUBKTNV-1">
          <mxGeometry x="439" y="70" width="140" height="140" as="geometry" />
        </mxCell>
        <mxCell id="tFHmv6YJ7B7vkWNUSLFC-5" value="DETAILS&lt;br&gt;ACTIVITY" style="whiteSpace=wrap;html=1;aspect=fixed;" vertex="1" parent="WIyWlLk6GJQsqaUBKTNV-1">
          <mxGeometry x="599" y="70" width="140" height="140" as="geometry" />
        </mxCell>
        <mxCell id="tFHmv6YJ7B7vkWNUSLFC-6" value="MAP&lt;br&gt;ACTIVITY" style="whiteSpace=wrap;html=1;aspect=fixed;" vertex="1" parent="WIyWlLk6GJQsqaUBKTNV-1">
          <mxGeometry x="760" y="70" width="140" height="140" as="geometry" />
        </mxCell>
        <mxCell id="tFHmv6YJ7B7vkWNUSLFC-8" value="" style="rounded=0;whiteSpace=wrap;html=1;fillColor=none;dashed=1;" vertex="1" parent="WIyWlLk6GJQsqaUBKTNV-1">
          <mxGeometry x="90" y="50" width="830" height="200" as="geometry" />
        </mxCell>
        <mxCell id="tFHmv6YJ7B7vkWNUSLFC-9" value="VIEWS&lt;br&gt;(+SERVICE)" style="text;html=1;strokeColor=none;fillColor=none;align=center;verticalAlign=middle;whiteSpace=wrap;rounded=0;dashed=1;" vertex="1" parent="WIyWlLk6GJQsqaUBKTNV-1">
          <mxGeometry x="20" y="120" width="40" height="20" as="geometry" />
        </mxCell>
        <mxCell id="tFHmv6YJ7B7vkWNUSLFC-10" value="VIEW&lt;br&gt;MODELS" style="text;html=1;strokeColor=none;fillColor=none;align=center;verticalAlign=middle;whiteSpace=wrap;rounded=0;dashed=1;" vertex="1" parent="WIyWlLk6GJQsqaUBKTNV-1">
          <mxGeometry x="20" y="320" width="40" height="20" as="geometry" />
        </mxCell>
        <mxCell id="tFHmv6YJ7B7vkWNUSLFC-11" value="MODEL" style="text;html=1;strokeColor=none;fillColor=none;align=center;verticalAlign=middle;whiteSpace=wrap;rounded=0;dashed=1;" vertex="1" parent="WIyWlLk6GJQsqaUBKTNV-1">
          <mxGeometry x="30" y="510" width="40" height="20" as="geometry" />
        </mxCell>
        <mxCell id="tFHmv6YJ7B7vkWNUSLFC-12" value="" style="rounded=0;whiteSpace=wrap;html=1;fillColor=none;dashed=1;" vertex="1" parent="WIyWlLk6GJQsqaUBKTNV-1">
          <mxGeometry x="90" y="260" width="830" height="150" as="geometry" />
        </mxCell>
        <mxCell id="tFHmv6YJ7B7vkWNUSLFC-13" value="" style="rounded=0;whiteSpace=wrap;html=1;fillColor=none;dashed=1;" vertex="1" parent="WIyWlLk6GJQsqaUBKTNV-1">
          <mxGeometry x="90" y="420" width="830" height="260" as="geometry" />
        </mxCell>
        <mxCell id="tFHmv6YJ7B7vkWNUSLFC-16" value="LOGIN VM" style="rounded=0;whiteSpace=wrap;html=1;fillColor=none;" vertex="1" parent="WIyWlLk6GJQsqaUBKTNV-1">
          <mxGeometry x="280" y="300" width="140" height="60" as="geometry" />
        </mxCell>
        <mxCell id="tFHmv6YJ7B7vkWNUSLFC-17" value="DETAILS VM" style="rounded=0;whiteSpace=wrap;html=1;fillColor=none;" vertex="1" parent="WIyWlLk6GJQsqaUBKTNV-1">
          <mxGeometry x="600" y="300" width="140" height="60" as="geometry" />
        </mxCell>
        <mxCell id="tFHmv6YJ7B7vkWNUSLFC-18" value="MAP VM" style="rounded=0;whiteSpace=wrap;html=1;fillColor=none;" vertex="1" parent="WIyWlLk6GJQsqaUBKTNV-1">
          <mxGeometry x="760" y="300" width="140" height="60" as="geometry" />
        </mxCell>
        <mxCell id="tFHmv6YJ7B7vkWNUSLFC-19" value="RECIPE VM" style="rounded=0;whiteSpace=wrap;html=1;fillColor=none;" vertex="1" parent="WIyWlLk6GJQsqaUBKTNV-1">
          <mxGeometry x="440" y="300" width="140" height="60" as="geometry" />
        </mxCell>
        <mxCell id="tFHmv6YJ7B7vkWNUSLFC-20" value="" style="shape=flexArrow;endArrow=classic;startArrow=classic;html=1;" edge="1" parent="WIyWlLk6GJQsqaUBKTNV-1">
          <mxGeometry width="50" height="50" relative="1" as="geometry">
            <mxPoint x="180" y="220" as="sourcePoint" />
            <mxPoint x="180" y="450" as="targetPoint" />
          </mxGeometry>
        </mxCell>
        <mxCell id="tFHmv6YJ7B7vkWNUSLFC-21" value="" style="shape=flexArrow;endArrow=classic;startArrow=classic;html=1;" edge="1" parent="WIyWlLk6GJQsqaUBKTNV-1">
          <mxGeometry width="50" height="50" relative="1" as="geometry">
            <mxPoint x="348.5" y="220" as="sourcePoint" />
            <mxPoint x="349" y="290" as="targetPoint" />
          </mxGeometry>
        </mxCell>
        <mxCell id="tFHmv6YJ7B7vkWNUSLFC-25" value="" style="shape=flexArrow;endArrow=classic;startArrow=classic;html=1;" edge="1" parent="WIyWlLk6GJQsqaUBKTNV-1">
          <mxGeometry width="50" height="50" relative="1" as="geometry">
            <mxPoint x="508.5" y="220" as="sourcePoint" />
            <mxPoint x="509" y="290" as="targetPoint" />
          </mxGeometry>
        </mxCell>
        <mxCell id="tFHmv6YJ7B7vkWNUSLFC-26" value="" style="shape=flexArrow;endArrow=classic;startArrow=classic;html=1;" edge="1" parent="WIyWlLk6GJQsqaUBKTNV-1">
          <mxGeometry width="50" height="50" relative="1" as="geometry">
            <mxPoint x="669.5" y="220" as="sourcePoint" />
            <mxPoint x="670" y="290" as="targetPoint" />
          </mxGeometry>
        </mxCell>
        <mxCell id="tFHmv6YJ7B7vkWNUSLFC-27" value="" style="shape=flexArrow;endArrow=classic;startArrow=classic;html=1;" edge="1" parent="WIyWlLk6GJQsqaUBKTNV-1">
          <mxGeometry width="50" height="50" relative="1" as="geometry">
            <mxPoint x="829.5" y="220" as="sourcePoint" />
            <mxPoint x="830" y="290" as="targetPoint" />
          </mxGeometry>
        </mxCell>
        <mxCell id="tFHmv6YJ7B7vkWNUSLFC-29" value="" style="shape=flexArrow;endArrow=classic;startArrow=classic;html=1;" edge="1" parent="WIyWlLk6GJQsqaUBKTNV-1">
          <mxGeometry width="50" height="50" relative="1" as="geometry">
            <mxPoint x="348.5" y="380" as="sourcePoint" />
            <mxPoint x="349" y="450" as="targetPoint" />
          </mxGeometry>
        </mxCell>
        <mxCell id="tFHmv6YJ7B7vkWNUSLFC-30" value="" style="shape=flexArrow;endArrow=classic;startArrow=classic;html=1;" edge="1" parent="WIyWlLk6GJQsqaUBKTNV-1">
          <mxGeometry width="50" height="50" relative="1" as="geometry">
            <mxPoint x="509.5" y="380" as="sourcePoint" />
            <mxPoint x="510" y="450" as="targetPoint" />
          </mxGeometry>
        </mxCell>
        <mxCell id="tFHmv6YJ7B7vkWNUSLFC-31" value="" style="shape=flexArrow;endArrow=classic;startArrow=classic;html=1;" edge="1" parent="WIyWlLk6GJQsqaUBKTNV-1">
          <mxGeometry width="50" height="50" relative="1" as="geometry">
            <mxPoint x="669.5" y="380" as="sourcePoint" />
            <mxPoint x="670" y="450" as="targetPoint" />
          </mxGeometry>
        </mxCell>
        <mxCell id="tFHmv6YJ7B7vkWNUSLFC-32" value="" style="shape=flexArrow;endArrow=classic;startArrow=classic;html=1;" edge="1" parent="WIyWlLk6GJQsqaUBKTNV-1">
          <mxGeometry width="50" height="50" relative="1" as="geometry">
            <mxPoint x="829.5" y="380" as="sourcePoint" />
            <mxPoint x="830" y="450" as="targetPoint" />
          </mxGeometry>
        </mxCell>
        <mxCell id="tFHmv6YJ7B7vkWNUSLFC-33" value="REPOSITORY" style="rounded=0;whiteSpace=wrap;html=1;fillColor=none;" vertex="1" parent="WIyWlLk6GJQsqaUBKTNV-1">
          <mxGeometry x="109" y="480" width="791" height="40" as="geometry" />
        </mxCell>
        <mxCell id="tFHmv6YJ7B7vkWNUSLFC-34" value="" style="shape=flexArrow;endArrow=classic;startArrow=classic;html=1;" edge="1" parent="WIyWlLk6GJQsqaUBKTNV-1">
          <mxGeometry width="50" height="50" relative="1" as="geometry">
            <mxPoint x="259" y="530" as="sourcePoint" />
            <mxPoint x="260" y="590" as="targetPoint" />
          </mxGeometry>
        </mxCell>
        <mxCell id="tFHmv6YJ7B7vkWNUSLFC-35" value="" style="shape=flexArrow;endArrow=classic;startArrow=classic;html=1;" edge="1" parent="WIyWlLk6GJQsqaUBKTNV-1">
          <mxGeometry width="50" height="50" relative="1" as="geometry">
            <mxPoint x="720" y="530" as="sourcePoint" />
            <mxPoint x="721" y="590" as="targetPoint" />
          </mxGeometry>
        </mxCell>
        <mxCell id="tFHmv6YJ7B7vkWNUSLFC-36" value="ROOM" style="rounded=0;whiteSpace=wrap;html=1;fillColor=none;" vertex="1" parent="WIyWlLk6GJQsqaUBKTNV-1">
          <mxGeometry x="200" y="600" width="120" height="40" as="geometry" />
        </mxCell>
        <mxCell id="tFHmv6YJ7B7vkWNUSLFC-37" value="WEB API" style="rounded=0;whiteSpace=wrap;html=1;fillColor=none;" vertex="1" parent="WIyWlLk6GJQsqaUBKTNV-1">
          <mxGeometry x="660" y="600" width="120" height="40" as="geometry" />
        </mxCell>
        <mxCell id="tFHmv6YJ7B7vkWNUSLFC-38" value="DATABASE" style="shape=cylinder3;whiteSpace=wrap;html=1;boundedLbl=1;backgroundOutline=1;size=15;fillColor=none;" vertex="1" parent="WIyWlLk6GJQsqaUBKTNV-1">
          <mxGeometry x="200" y="720" width="120" height="50" as="geometry" />
        </mxCell>
        <mxCell id="tFHmv6YJ7B7vkWNUSLFC-39" value="INTERNET" style="ellipse;shape=cloud;whiteSpace=wrap;html=1;" vertex="1" parent="WIyWlLk6GJQsqaUBKTNV-1">
          <mxGeometry x="670" y="705" width="120" height="80" as="geometry" />
        </mxCell>
        <mxCell id="tFHmv6YJ7B7vkWNUSLFC-41" value="" style="shape=flexArrow;endArrow=classic;startArrow=classic;html=1;" edge="1" parent="WIyWlLk6GJQsqaUBKTNV-1">
          <mxGeometry width="50" height="50" relative="1" as="geometry">
            <mxPoint x="259.5" y="650" as="sourcePoint" />
            <mxPoint x="260.5" y="710" as="targetPoint" />
          </mxGeometry>
        </mxCell>
        <mxCell id="tFHmv6YJ7B7vkWNUSLFC-42" value="" style="shape=flexArrow;endArrow=classic;startArrow=classic;html=1;" edge="1" parent="WIyWlLk6GJQsqaUBKTNV-1">
          <mxGeometry width="50" height="50" relative="1" as="geometry">
            <mxPoint x="719.5" y="650" as="sourcePoint" />
            <mxPoint x="720.5" y="710" as="targetPoint" />
          </mxGeometry>
        </mxCell>
        <mxCell id="tFHmv6YJ7B7vkWNUSLFC-44" value="FIREBASE" style="ellipse;shape=cloud;whiteSpace=wrap;html=1;fillColor=#ffffff;" vertex="1" parent="WIyWlLk6GJQsqaUBKTNV-1">
          <mxGeometry x="444.5" y="705" width="120" height="80" as="geometry" />
        </mxCell>
        <mxCell id="tFHmv6YJ7B7vkWNUSLFC-45" value="" style="shape=flexArrow;endArrow=classic;startArrow=classic;html=1;" edge="1" parent="WIyWlLk6GJQsqaUBKTNV-1">
          <mxGeometry width="50" height="50" relative="1" as="geometry">
            <mxPoint x="500" y="530" as="sourcePoint" />
            <mxPoint x="500" y="710" as="targetPoint" />
          </mxGeometry>
        </mxCell>
      </root>
    </mxGraphModel>
  </diagram>
</mxfile>
